<svg width="50" height="40" viewBox="0 0 50 40" fill="none" xmlns="http://www.w3.org/2000/svg">
<path d="M48.7348 16.7296C48.29 16.2813 47.7301 15.967 47.0633 15.7868V8.28398C47.0633 4.24639 43.7785 0.961426 39.7408 0.961426H10.2554C6.21771 0.961426 2.93285 4.24629 2.93285 8.28398V15.7868C2.26605 15.967 1.70619 16.2812 1.26146 16.7296C-0.0322908 18.0335 -0.0127595 20.0407 0.00384207 22.1657C0.0113616 23.1253 0.00384207 31.716 0.00384207 31.716C0.00384207 32.5248 0.659506 33.1806 1.46839 33.1806H2.93294V37.5741C2.93294 38.3829 3.58861 39.0387 4.39749 39.0387C5.20638 39.0387 5.86205 38.383 5.86205 37.5741V33.1806H44.1345V37.5741C44.1345 38.3829 44.7902 39.0387 45.5991 39.0387C46.4079 39.0387 47.0636 38.383 47.0636 37.5741V33.1806H48.5282C49.3369 33.1806 49.9927 32.5249 49.9927 31.716C49.9926 31.5518 49.9909 22.9077 49.9967 22.1657C50.0129 20.0406 50.0285 18.0335 48.7348 16.7296ZM5.86185 8.28398C5.86185 5.86143 7.83275 3.89043 10.2554 3.89043H39.7408C42.1633 3.89043 44.1343 5.86133 44.1343 8.28398V15.6065H41.2053V11.213C41.2053 8.79043 39.2344 6.81943 36.8118 6.81943H27.9271C26.8027 6.81943 25.776 7.24453 24.9981 7.9417C24.2201 7.24443 23.1935 6.81943 22.0691 6.81943H13.1844C10.7618 6.81943 8.79085 8.79033 8.79085 11.213V15.6065H5.86185V8.28398ZM38.2763 11.213V15.6065H26.4626V11.213C26.4626 10.4055 27.1196 9.74844 27.9272 9.74844H36.8118C37.6194 9.74844 38.2763 10.4055 38.2763 11.213ZM23.5336 11.213V15.6065H11.72V11.213C11.72 10.4055 12.3769 9.74844 13.1845 9.74844H22.0692C22.8766 9.74844 23.5336 10.4055 23.5336 11.213ZM47.0633 30.2516H2.93285V27.3226H47.0633V30.2516ZM47.0674 22.1429C47.0602 23.0727 47.065 22.858 47.0633 24.3936H2.93285C2.93138 22.9393 2.93587 23.0459 2.92874 22.1429C2.90355 18.9121 3.03392 18.5355 4.3974 18.5355H45.5989C45.9646 18.5355 46.4448 18.5802 46.6557 18.7926C47.0902 19.2306 47.0781 20.7777 47.0674 22.1429Z" fill="white"/>
</svg>
