<svg width="40" height="32" viewBox="0 0 40 32" fill="none" xmlns="http://www.w3.org/2000/svg">
<path d="M35.2357 18.103H29.2995C28.4365 18.103 27.737 18.8026 27.737 19.6655C27.737 20.5285 28.4365 21.228 29.2995 21.228H31.4647L23.9694 28.7232C23.3592 29.3334 23.3592 30.3227 23.9694 30.9329C24.5796 31.543 25.5688 31.5432 26.1791 30.9329L33.6745 23.4377V25.6029C33.6745 26.4659 34.374 27.1654 35.237 27.1654C36.0999 27.1654 36.7995 26.4659 36.7995 25.6029V19.6655C36.7995 19.6653 36.7995 19.6651 36.7995 19.6648C36.799 18.8158 36.109 18.1024 35.2357 18.103Z" fill="#29ABE2"/>
<path d="M38.4376 0.609375H29.2188C28.3559 0.609375 27.6563 1.30891 27.6563 2.17188V9.82812H20.0001C19.1372 9.82812 18.4376 10.5277 18.4376 11.3906V19.0469H10.7813C9.91836 19.0469 9.21883 19.7464 9.21883 20.6094V28.2656H1.5625C0.699531 28.2656 0 28.9652 0 29.8281C0 30.6911 0.699531 31.3906 1.5625 31.3906H10.7813C11.1957 31.3906 11.5932 31.226 11.8862 30.933C12.1792 30.64 12.3438 30.2425 12.3438 29.8281L12.3438 22.1719H20.0001C20.4145 22.1719 20.812 22.0073 21.1049 21.7142C21.398 21.4212 21.5626 21.0238 21.5626 20.6094L21.5625 12.9531H29.2188C29.6332 12.9531 30.0306 12.7885 30.3236 12.4955C30.6166 12.2025 30.7812 11.805 30.7812 11.3906L30.7812 3.73438H38.4375C39.3005 3.73438 40 3.03484 40 2.17188C40 1.30891 39.3005 0.609375 38.4376 0.609375Z" fill="#29ABE2"/>
</svg>
