<svg width="44" height="39" viewBox="0 0 44 39" fill="none" xmlns="http://www.w3.org/2000/svg">
<path d="M43.8186 13.3447L37.9593 1.62598C37.6756 1.12812 37.2773 0.816406 36.6487 0.816406H7.35184C6.73934 0.816406 6.32977 1.12031 6.0413 1.62598L0.18192 13.3447C-0.0893692 13.9209 0.00350163 14.4999 0.387974 14.9619L20.8958 38.4971C21.1741 38.8164 21.5765 39 22.0003 39C22.4241 39 22.8265 38.8164 23.1048 38.4971L43.6126 14.9619C43.9946 14.5022 44.0916 13.9239 43.8186 13.3447ZM34.2786 3.74609L30.5393 11.2246L24.93 3.74609H34.2786ZM27.8597 12.5352H16.1409L22.0003 4.72266L27.8597 12.5352ZM19.0706 3.74609L13.4612 11.2246L9.72196 3.74609H19.0706ZM7.35184 5.55664L10.8411 12.5352H3.86258L7.35184 5.55664ZM4.71219 15.4648H12.2434L19.4651 32.3965L4.71219 15.4648ZM22.0003 30.8721L15.429 15.4648H28.5716L22.0003 30.8721ZM24.5354 32.3965L31.7571 15.4648H39.2884L24.5354 32.3965ZM33.1595 12.5352L36.6487 5.55664L40.138 12.5352H33.1595Z" fill="white"/>
</svg>
