<svg width="50" height="48" viewBox="0 0 50 48" fill="none" xmlns="http://www.w3.org/2000/svg">
<path d="M49.4324 22.0872L29.0818 1.60252C29.0557 1.57615 29.0287 1.55056 29.0012 1.52576C26.779 -0.469457 23.4211 -0.476586 21.1904 1.50925C21.1627 1.53396 21.1357 1.55945 21.1095 1.58562L0.573426 22.0813C-0.19005 22.8433 -0.19132 24.08 0.570692 24.8434C1.3328 25.607 2.56942 25.6081 3.3328 24.8462L4.8828 23.2992V40.1629C4.8828 44.4707 8.38749 47.9754 12.6953 47.9754H37.3047C41.6125 47.9754 45.1172 44.4707 45.1172 40.1629C45.1172 39.0842 44.2428 38.2097 43.1641 38.2097C42.0853 38.2097 41.2109 39.0842 41.2109 40.1629C41.2109 42.3168 39.4586 44.0691 37.3047 44.0691H12.6953C10.5414 44.0691 8.78905 42.3168 8.78905 40.1629V19.4597C8.78905 19.4407 8.78681 19.4222 8.78622 19.4034L23.8228 4.39636C24.5546 3.77498 25.6278 3.77732 26.3567 4.40173L41.2109 19.354V30.3972C41.2109 31.476 42.0853 32.3504 43.1641 32.3504C44.2428 32.3504 45.1172 31.476 45.1172 30.3972V23.2859L46.6613 24.8403C47.0431 25.2246 47.5448 25.4169 48.0469 25.4169C48.5446 25.4169 49.0425 25.2277 49.4234 24.8493C50.1887 24.089 50.1928 22.8524 49.4324 22.0872Z" fill="white"/>
</svg>
