<svg width="16" height="12" viewBox="0 0 16 12" fill="none" xmlns="http://www.w3.org/2000/svg">
<path d="M15.6605 7.3893H10.911V4.03952C10.911 1.83862 8.46238 0.0463867 5.44093 0.0463867C2.41937 0.0463867 -0.0292969 1.83862 -0.0292969 4.03952V7.99742C-0.0292969 10.0246 2.04617 11.6978 4.72011 11.952H4.77486C4.9968 11.9714 5.22208 11.9875 5.45057 11.9875H15.6605C15.8381 11.9875 15.9823 11.8433 15.9823 11.6657V7.71097C15.9823 7.53344 15.8381 7.3893 15.6605 7.3893ZM5.457 0.693069C8.11155 0.693069 10.2836 2.19576 10.2836 4.04285C10.2836 5.88982 8.12452 7.39251 5.457 7.39251C2.78948 7.39251 0.630353 5.88982 0.630353 4.04273C0.630353 2.19576 2.80555 0.693069 5.457 0.693069ZM10.2836 5.91874V7.3893H8.41728C9.14578 7.05913 9.78133 6.55395 10.2675 5.91874H10.2836ZM15.3387 11.3439H14.6951V9.71563C14.6951 9.53809 14.5509 9.39384 14.3734 9.39384C14.1958 9.39384 14.0516 9.53798 14.0516 9.71563V11.3471H12.7644V10.4622C12.7644 10.2845 12.6203 10.1404 12.4427 10.1404C12.265 10.1404 12.1209 10.2845 12.1209 10.4622V11.3471H10.8338V10.4622C10.8338 10.2845 10.6897 10.1404 10.512 10.1404C10.3344 10.1404 10.1902 10.2845 10.1902 10.4622V11.3471H8.90306V9.71563C8.90306 9.53809 8.75892 9.39384 8.58127 9.39384C8.40373 9.39384 8.25948 9.53798 8.25948 9.71563V11.3471H7.02717V10.4622C7.02717 10.2845 6.88291 10.1404 6.70538 10.1404C6.52773 10.1404 6.38358 10.2845 6.38358 10.4622V11.3471H5.45677C5.33455 11.3471 5.21554 11.3471 5.09642 11.3471V10.4622C5.09642 10.2845 4.95228 10.1404 4.77463 10.1404C4.59698 10.1404 4.45283 10.2845 4.45283 10.4622V11.2698C2.28109 10.9481 0.64642 9.60305 0.64642 7.99421V5.91874C1.56669 7.17687 3.37832 8.03277 5.47307 8.03277H15.3387V11.3439Z" fill="#353535"/>
</svg>
