<svg width="8" height="12" viewBox="0 0 8 12" fill="none" xmlns="http://www.w3.org/2000/svg">
<path d="M7.37982 5.72339L1.77648 0.120322C1.69629 0.0402196 1.60401 0 1.49986 0C1.39567 0 1.30344 0.0402196 1.2233 0.120322L0.622191 0.721551C0.54192 0.801696 0.501953 0.893759 0.501953 0.998119C0.501953 1.10248 0.54192 1.19454 0.622191 1.27469L5.34765 6.00013L0.622191 10.7257C0.54192 10.8058 0.501953 10.898 0.501953 11.0021C0.501953 11.1064 0.54192 11.1986 0.622191 11.2788L1.22334 11.8798C1.30348 11.96 1.39571 12 1.49991 12C1.60406 12 1.69629 11.9599 1.77648 11.8798L7.37952 6.27669C7.45962 6.19659 7.49972 6.10432 7.49972 6.00013C7.49972 5.89593 7.45992 5.8037 7.37982 5.72339Z" fill="#29ABE2"/>
</svg>
